<svg width="42" height="43" viewBox="0 0 42 43" xmlns="http://www.w3.org/2000/svg">
  <g fill="none" fill-rule="evenodd">
    <path d="M31.169 7.596V38.29a2.565 2.565 0 0 1-2.565 2.565H4.85a2.565 2.565 0 0 1-2.565-2.565V10.123l7.7-7.78h18.62a2.565 2.565 0 0 1 2.564 2.566v2.174" fill="#37C5F3"/>
    <path d="M31.169 7.596V38.29a2.565 2.565 0 0 1-2.565 2.565H4.85a2.565 2.565 0 0 1-2.565-2.565V10.123l7.7-7.78h18.62a2.565 2.565 0 0 1 2.564 2.566v2.174" stroke="#37C5F3" stroke-width="3" stroke-linecap="round" stroke-linejoin="round"/>
    <path d="M1.525 9.724h5.553a2.504 2.504 0 0 0 2.505-2.505V1.581L1.525 9.724z" fill="#FFF"/>
    <path d="M27.337 5.709a.762.762 0 0 1 .056 1.521l-.056.002H13.33a.762.762 0 0 1-.056-1.521l.056-.002h14.006zm0 3.653a.762.762 0 0 1 .056 1.521l-.056.002H13.33a.762.762 0 0 1-.056-1.521l.056-.002h14.006zM12.808 23.417a.762.762 0 0 1 .057 1.522l-.057.002H6.175a.762.762 0 0 1-.057-1.522l.057-.002h6.633zM10.1 27.028a.762.762 0 0 1 .057 1.521l-.057.002H6.175a.762.762 0 0 1-.057-1.521l.057-.002H10.1zm-1.805 3.61a.762.762 0 0 1 .057 1.521l-.057.002h-2.12a.762.762 0 0 1-.057-1.521l.057-.002h2.12zm19.042-7.221a.762.762 0 0 1 .057 1.522l-.057.002h-1.494a.762.762 0 0 1-.057-1.522l.057-.002h1.494zm0 3.611a.762.762 0 0 1 .056 1.521l-.056.002h-4.76a.762.762 0 0 1-.057-1.521l.057-.002h4.76zm0 3.61a.762.762 0 0 1 .057 1.521l-.057.002H18.88a.762.762 0 0 1-.057-1.521l.057-.002h8.457zm0 3.61a.762.762 0 0 1 .057 1.522l-.057.002H6.175a.762.762 0 0 1-.057-1.522l.057-.002h21.162z" fill="#FEFEFE" fill-rule="nonzero"/>
    <path fill="#FEFEFE" d="M18.575 19.88h-4.642v-6.103h10.558z"/>
    <path fill="#4B8CC9" d="M11.225 32.747l2.314-5.166 2.558 2.558z"/>
    <path stroke="#4B8CC9" stroke-width="3" stroke-linecap="round" stroke-linejoin="round" d="M11.225 32.747l2.314-5.166 2.558 2.558z"/>
    <path fill="#0047BB" d="M39.45 6.785L16.096 30.14l-2.556-2.56L36.836 4.286z"/>
    <path stroke="#2C52A2" stroke-width="3" stroke-linecap="round" stroke-linejoin="round" d="M39.45 6.785L16.096 30.14l-2.556-2.56L36.836 4.286z"/>
    <path fill="#FEFEFE" fill-rule="nonzero" d="M27.695 12.068l1.357-1.336 3.872 3.937-1.358 1.335z"/>
    <path d="M38.912 6.246a.762.762 0 0 1 1.029-.044l.121.114c.117.111.34.326.439.432 1.13 1.197 1.295 2.565-.14 4l-6.619 6.62a.762.762 0 1 1-1.077-1.078l6.619-6.62c.778-.778.724-1.224.108-1.877l-.157-.157c-.143-.14-.318-.307-.324-.313a.762.762 0 0 1 0-1.077z" fill="#0047BB" fill-rule="nonzero"/>
    <path d="M8.353 16.1c-.325-.15-.548-.3-.664-.45a.827.827 0 0 1-.167-.53c.003-.26.084-.498.242-.705.142-.186.372-.314.683-.378l-.02 2.093-.074-.03zm.94 1.469l.116.046c.277.121.475.256.588.403a.82.82 0 0 1 .163.527c-.001.17-.036.337-.104.494a.967.967 0 0 1-.288.38c-.108.086-.274.146-.494.18l.018-2.03zm1.782.12c-.103-.24-.29-.455-.557-.64a4.333 4.333 0 0 0-.872-.465l-.343-.123.022-2.408c.21.045.371.113.483.204.12.096.178.214.177.363l-.002.126 1.092.01.001-.126c.004-.332-.121-.65-.37-.945-.245-.292-.695-.465-1.372-.529l.007-.749-.879-.008-.007.753c-.462.059-.834.175-1.105.347-.288.18-.51.415-.66.697-.15.281-.227.596-.23.936-.004.434.112.813.347 1.124.236.314.684.605 1.372.888l.238.096-.023 2.374c-.464-.068-.77-.182-.906-.338-.148-.168-.218-.378-.216-.642l.001-.122-1.095-.01-.001.121c-.005.453.155.873.474 1.247.312.367.895.585 1.735.651l-.007.73.879.008.007-.736c.456-.07.82-.203 1.084-.398.276-.202.493-.46.643-.763a2.14 2.14 0 0 0 .232-.934 1.828 1.828 0 0 0-.15-.739z" fill="#FEFEFE"/>
  </g>
</svg>
