<svg width="78" height="84" viewBox="0 0 78 84" xmlns="http://www.w3.org/2000/svg">
  <g fill="none" fill-rule="evenodd">
    <path fill="#2B50A2" d="M57.89 82.494h12.838V29.388H57.89z"/>
    <path stroke="#FEFEFE" stroke-width="3" stroke-linecap="round" stroke-linejoin="round" d="M57.89 82.494h12.838V29.388H57.89z"/>
    <path fill="#2B50A2" d="M45.052 82.494H57.89v-44.91H45.052z"/>
    <path stroke="#FEFEFE" stroke-width="3" stroke-linecap="round" stroke-linejoin="round" d="M45.052 82.494H57.89v-44.91H45.052z"/>
    <path fill="#2B50A2" d="M32.214 82.494h12.838V43.456H32.214z"/>
    <path stroke="#FEFEFE" stroke-width="3" stroke-linecap="round" stroke-linejoin="round" d="M32.214 82.494h12.838V43.456H32.214z"/>
    <path fill="#2B50A2" d="M19.375 82.494h12.838V53.788H19.375z"/>
    <path stroke="#FEFEFE" stroke-width="3" stroke-linecap="round" stroke-linejoin="round" d="M19.375 82.494h12.838V53.788H19.375z"/>
    <path fill="#2B50A2" d="M6.537 82.494h12.838v-24.52H6.537z"/>
    <g stroke-linecap="round" stroke-linejoin="round" stroke-width="3">
      <path stroke="#FEFEFE" d="M6.537 82.494h12.838v-24.52H6.537z"/>
      <path stroke="#37C5F3" d="M1.5 82.494h74.496M55.273 5.803l5.498-4.009c0 16.978-31.86 39.381-53.851 39.381M63.59 7.495l-2.82-5.7"/>
    </g>
  </g>
</svg>
